<svg width="24" height="25" viewBox="0 0 24 25" fill="none" xmlns="http://www.w3.org/2000/svg">
<rect y="0.360352" width="24" height="24" rx="12" fill="white"/>
<path d="M12.0022 5.96191C10.264 5.96191 10.0459 5.96951 9.3632 6.00058C8.68186 6.03178 8.21679 6.13965 7.80985 6.29792C7.38891 6.46139 7.03184 6.68005 6.67611 7.03593C6.3201 7.39166 6.10143 7.74873 5.93743 8.16954C5.77876 8.57661 5.67076 9.04181 5.6401 9.72289C5.60956 10.4056 5.60156 10.6238 5.60156 12.362C5.60156 14.1001 5.6093 14.3176 5.64023 15.0003C5.67156 15.6816 5.77943 16.1467 5.93757 16.5536C6.10117 16.9746 6.31984 17.3316 6.67571 17.6874C7.03131 18.0434 7.38838 18.2626 7.80905 18.426C8.21626 18.5843 8.68146 18.6922 9.36267 18.7234C10.0453 18.7544 10.2633 18.762 12.0014 18.762C13.7396 18.762 13.9571 18.7544 14.6398 18.7234C15.3211 18.6922 15.7867 18.5843 16.1939 18.426C16.6147 18.2626 16.9713 18.0434 17.3269 17.6874C17.6829 17.3316 17.9016 16.9746 18.0656 16.5538C18.2229 16.1467 18.3309 15.6815 18.3629 15.0004C18.3936 14.3177 18.4016 14.1001 18.4016 12.362C18.4016 10.6238 18.3936 10.4057 18.3629 9.72302C18.3309 9.04168 18.2229 8.57661 18.0656 8.16967C17.9016 7.74873 17.6829 7.39166 17.3269 7.03593C16.9709 6.67992 16.6149 6.46125 16.1935 6.29792C15.7855 6.13965 15.3202 6.03178 14.6389 6.00058C13.9562 5.96951 13.7388 5.96191 12.0002 5.96191H12.0022Z" fill="black"/>
<path fill-rule="evenodd" clip-rule="evenodd" d="M11.4304 7.11195C11.5419 7.11178 11.6618 7.11183 11.7912 7.11189L12.0045 7.11195C13.7134 7.11195 13.9159 7.11809 14.5907 7.14875C15.2147 7.17729 15.5534 7.28155 15.779 7.36915C16.0776 7.48516 16.2906 7.62382 16.5144 7.84783C16.7384 8.07183 16.8771 8.28516 16.9934 8.58383C17.081 8.80917 17.1854 9.14784 17.2138 9.77185C17.2445 10.4465 17.2511 10.6492 17.2511 12.3572C17.2511 14.0652 17.2445 14.2679 17.2138 14.9426C17.1853 15.5666 17.081 15.9052 16.9934 16.1306C16.8774 16.4292 16.7384 16.6419 16.5144 16.8658C16.2904 17.0898 16.0778 17.2285 15.779 17.3445C15.5536 17.4325 15.2147 17.5365 14.5907 17.565C13.916 17.5957 13.7134 17.6023 12.0045 17.6023C10.2956 17.6023 10.093 17.5957 9.41837 17.565C8.79437 17.5362 8.4557 17.4319 8.22996 17.3443C7.93129 17.2283 7.71796 17.0897 7.49395 16.8657C7.26995 16.6417 7.13128 16.4288 7.01502 16.13C6.92741 15.9047 6.82301 15.566 6.79461 14.942C6.76395 14.2674 6.75781 14.0647 6.75781 12.3556C6.75781 10.6465 6.76395 10.4449 6.79461 9.77025C6.82315 9.14624 6.92741 8.80757 7.01502 8.58197C7.13102 8.2833 7.26995 8.06996 7.49395 7.84596C7.71796 7.62196 7.93129 7.48329 8.22996 7.36702C8.45556 7.27902 8.79437 7.17502 9.41837 7.14635C10.0088 7.11969 10.2376 7.11168 11.4304 7.11035V7.11195ZM15.4243 8.17312C15.0003 8.17312 14.6562 8.51672 14.6562 8.94086C14.6562 9.36486 15.0003 9.70887 15.4243 9.70887C15.8483 9.70887 16.1923 9.36486 16.1923 8.94086C16.1923 8.51686 15.8483 8.17285 15.4243 8.17285V8.17312ZM8.71875 12.358C8.71875 10.5429 10.1903 9.07136 12.0053 9.07129C13.8204 9.07129 15.2916 10.5429 15.2916 12.358C15.2916 14.1731 13.8205 15.644 12.0055 15.644C10.1904 15.644 8.71875 14.1731 8.71875 12.358Z" fill="white"/>
<path d="M12.0005 10.2275C13.1787 10.2275 14.1339 11.1826 14.1339 12.3609C14.1339 13.539 13.1787 14.4943 12.0005 14.4943C10.8223 14.4943 9.86719 13.539 9.86719 12.3609C9.86719 11.1826 10.8223 10.2275 12.0005 10.2275Z" fill="white"/>
</svg>
