<svg width="56" height="56" viewBox="0 0 56 56" fill="none" xmlns="http://www.w3.org/2000/svg">
<path d="M48.9679 23.316C48.9679 39.6399 27.98 53.6318 27.98 53.6318C27.98 53.6318 6.99219 39.6399 6.99219 23.316C6.99219 17.7497 9.2034 12.4113 13.1394 8.47532C17.0754 4.53934 22.4137 2.32812 27.98 2.32812C33.5464 2.32813 38.8847 4.53934 42.8207 8.47532C46.7567 12.4113 48.9679 17.7497 48.9679 23.316Z" fill="#C4A54A"/>
<path d="M27.9803 30.3122C31.8441 30.3122 34.9763 27.18 34.9763 23.3163C34.9763 19.4525 31.8441 16.3203 27.9803 16.3203C24.1166 16.3203 20.9844 19.4525 20.9844 23.3163C20.9844 27.18 24.1166 30.3122 27.9803 30.3122Z" fill="white" stroke="white" stroke-width="2" stroke-linecap="round" stroke-linejoin="round"/>
</svg>
