<svg width="48" height="49" viewBox="0 0 48 49" fill="none" xmlns="http://www.w3.org/2000/svg">
<rect y="0.5" width="48" height="48" rx="24" fill="#C4A54A"/>
<path d="M26.1065 22.8164C26.1065 21.6533 25.1603 20.707 23.9972 20.707C22.834 20.707 21.8878 21.6533 21.8878 22.8164C21.8878 23.8708 22.2832 24.8643 23.004 25.6277L21.3906 27.2411L22.385 28.2354L23.9972 26.6233L25.6094 28.2355L26.6037 27.2411L24.9903 25.6277C25.711 24.8643 26.1065 23.8708 26.1065 22.8164ZM23.9972 24.6307C23.5428 24.1337 23.294 23.4942 23.294 22.8165C23.294 22.4288 23.6095 22.1133 23.9972 22.1133C24.3849 22.1133 24.7003 22.4288 24.7003 22.8165C24.7003 23.4941 24.4515 24.1336 23.9972 24.6307Z" fill="white"/>
<path d="M29.625 13.6758C27.2178 13.6758 25.0667 15.0307 24 17.0992C22.9333 15.0306 20.7822 13.6758 18.375 13.6758C14.5185 13.6758 12 16.7898 12 20.7393C12 25.7936 16.2766 28.5744 21.7969 33.2991C22.2249 33.6655 22.3287 33.7579 24.1406 35.3269C24.7525 34.799 24.7732 34.7737 26.8688 32.9773C32.9484 27.7658 36 25.1499 36 20.7393C36 16.7894 33.4809 13.6758 29.625 13.6758ZM25.9536 31.9096C25.3707 32.4093 24.7717 32.9228 24.1413 33.4668C23.3415 32.7747 23.0972 32.5603 22.6106 32.1445C17.2351 27.5511 13.4062 25.0473 13.4062 20.7393C13.4062 17.4084 15.4495 15.0821 18.375 15.0821C20.6223 15.0821 22.5825 16.5998 23.1419 18.773L23.2777 19.3008H24.7222L24.858 18.773C25.4174 16.5998 27.3776 15.0821 29.6249 15.0821C32.5504 15.0821 34.5937 17.4084 34.5937 20.7393C34.5938 24.5175 31.7984 26.8994 25.9536 31.9096Z" fill="white"/>
</svg>
