<svg width="41" height="41" viewBox="0 0 41 41" fill="none" xmlns="http://www.w3.org/2000/svg">
<g clip-path="url(#clip0_0_1701)">
<path d="M29.8566 25.2515C31.5087 27.5764 31.2926 30.8214 29.2083 32.9057L23.2978 38.8162L22.603 38.1214C20.496 36.0144 19.621 33.142 19.978 30.3993" stroke="#0E372D" stroke-width="2" stroke-miterlimit="10" stroke-linecap="round" stroke-linejoin="round"/>
<path d="M15.3599 10.7218C13.0276 8.97255 9.70375 9.15864 7.58234 11.28L1.67188 17.1905L2.36672 17.8854C4.47648 19.9951 7.35383 20.8697 10.0998 20.5089" stroke="#0E372D" stroke-width="2" stroke-miterlimit="10" stroke-linecap="round" stroke-linejoin="round"/>
<path d="M37.6855 12.9912C35.2113 20.0947 30.0658 26.1343 23.1023 29.653L21.9914 30.2143L15.6638 31.1829L9.30469 24.8238L10.2733 18.4962L10.4583 18.1301C14.1227 10.8784 20.5091 5.61629 27.9627 3.26833C31.5447 2.13997 35.373 1.68395 39.2645 2.00481L39.3003 2.00778C39.4636 5.80934 38.8923 9.52676 37.6855 12.9912Z" stroke="#0E372D" stroke-width="2" stroke-miterlimit="10" stroke-linecap="round" stroke-linejoin="round"/>
<path d="M28.0742 3.38028L37.5733 12.8793" stroke="#0E372D" stroke-width="2" stroke-miterlimit="10" stroke-linecap="round" stroke-linejoin="round"/>
<path d="M24.5952 19.8586C26.528 19.8586 28.0948 18.2918 28.0948 16.3591C28.0948 14.4264 26.528 12.8596 24.5952 12.8596C22.6625 12.8596 21.0957 14.4264 21.0957 16.3591C21.0957 18.2918 22.6625 19.8586 24.5952 19.8586Z" stroke="#0E372D" stroke-width="2" stroke-miterlimit="10" stroke-linecap="round" stroke-linejoin="round"/>
<path d="M21.8238 30.0465L10.4414 18.664" stroke="#0E372D" stroke-width="2" stroke-miterlimit="10" stroke-linecap="round" stroke-linejoin="round"/>
<path d="M9.29031 31.5218L5.51953 35.2927" stroke="#0E372D" stroke-width="2" stroke-miterlimit="10" stroke-linecap="round" stroke-linejoin="round"/>
<path d="M5.93297 28.1652L2.16211 31.936" stroke="#0E372D" stroke-width="2" stroke-miterlimit="10" stroke-linecap="round" stroke-linejoin="round"/>
<path d="M12.6468 34.8786L8.87598 38.6493" stroke="#0E372D" stroke-width="2" stroke-miterlimit="10" stroke-linecap="round" stroke-linejoin="round"/>
</g>
<defs>
<clipPath id="clip0_0_1701">
<rect width="40" height="40" fill="white" transform="translate(0.5 0.360352)"/>
</clipPath>
</defs>
</svg>
