<svg width="99" height="76" viewBox="0 0 99 76" fill="none" xmlns="http://www.w3.org/2000/svg">
<path d="M22 75.3603C15.7398 75.3603 10.4634 73.1202 6.17073 68.6399C2.05691 64.1596 0 58.4249 0 51.4356C0 44.6256 1.78862 37.8156 5.36585 31.0055C9.12195 24.0163 13.8618 17.7439 19.5854 12.1883C25.4878 6.63276 31.5691 2.6901 37.8293 0.360352L45.878 18.6399C44.2683 19.8944 42.122 21.5969 39.439 23.7475C36.935 25.898 34.5203 28.2277 32.1951 30.7367C30.0488 33.0665 28.439 35.217 27.3659 37.1883H28.439C32.0163 37.1883 35.3252 39.07 38.3659 42.8335C41.5854 46.5969 43.1951 50.9876 43.1951 56.0055C43.1951 59.769 42.0325 63.0844 39.7073 65.9517C37.561 68.8191 34.878 71.1489 31.6585 72.941C28.439 74.5539 25.2195 75.3603 22 75.3603ZM75.1219 75.3603C68.8618 75.3603 63.5854 73.1202 59.2927 68.6399C55.1789 64.1596 53.1219 58.4249 53.1219 51.4356C53.1219 44.6256 54.9106 37.8156 58.4878 31.0055C62.2439 24.0163 66.9837 17.7439 72.7073 12.1883C78.6098 6.63276 84.6911 2.6901 90.9512 0.360352L99 18.6399C97.3902 19.8944 95.2439 21.5969 92.561 23.7475C90.0569 25.898 87.6423 28.2277 85.3171 30.7367C83.1707 33.0665 81.561 35.217 80.4878 37.1883H81.561C85.1382 37.1883 88.4472 39.07 91.4878 42.8335C94.7073 46.5969 96.3171 50.9876 96.3171 56.0055C96.3171 59.769 95.1545 63.0844 92.8293 65.9517C90.6829 68.8191 88 71.1489 84.7805 72.941C81.561 74.5539 78.3415 75.3603 75.1219 75.3603Z" fill="#C4A54A"/>
</svg>
