<svg width="127" height="28" viewBox="0 0 127 28" fill="none" xmlns="http://www.w3.org/2000/svg">
<path d="M37.1489 18.687C37.1489 19.2982 37.0234 19.7679 36.7725 20.096C36.5281 20.4241 36.1195 20.5882 35.5469 20.5882C35.0064 20.5882 34.6236 20.4241 34.3984 20.096C34.1797 19.7679 34.0703 19.2982 34.0703 18.687V8.48617C34.0703 7.87495 34.1797 7.40528 34.3984 7.07715C34.6236 6.74902 35.0064 6.58496 35.5469 6.58496C36.1195 6.58496 36.5281 6.74902 36.7725 7.07715C37.0234 7.40528 37.1489 7.87495 37.1489 8.48617V18.687Z" fill="#8B888A"/>
<path d="M38.083 15.7243C38.083 15.0423 38.1924 14.399 38.4112 13.7942C38.6363 13.1829 38.9709 12.649 39.4148 12.1921C39.8652 11.7353 40.425 11.3718 41.0941 11.1016C41.7696 10.8313 42.5609 10.6963 43.4681 10.6963C44.3367 10.6963 45.1056 10.8217 45.7747 11.0726C46.4438 11.3236 47.0068 11.6742 47.4635 12.1246C47.9203 12.5685 48.2678 13.0993 48.5058 13.7169C48.7438 14.3281 48.8629 14.9973 48.8629 15.7243C48.8629 16.3999 48.7503 17.04 48.5251 17.6448C48.3 18.2431 47.9622 18.7707 47.5118 19.2276C47.0615 19.6779 46.4985 20.0382 45.8229 20.3084C45.1473 20.5722 44.3624 20.7041 43.4681 20.7041C42.5867 20.7041 41.8082 20.5786 41.1326 20.3277C40.4635 20.0704 39.9006 19.7197 39.4438 19.2757C38.9934 18.8254 38.6524 18.2979 38.4208 17.6931C38.1956 17.0819 38.083 16.4256 38.083 15.7243ZM41.2967 15.7243C41.2967 16.149 41.3353 16.5543 41.4125 16.9403C41.4897 17.3199 41.612 17.6545 41.7793 17.944C41.9529 18.2335 42.1782 18.4651 42.4548 18.6388C42.7315 18.8061 43.0692 18.8897 43.4681 18.8897C43.8349 18.8897 44.1533 18.8126 44.4235 18.6581C44.7002 18.5038 44.9254 18.2882 45.0992 18.0115C45.2793 17.7349 45.4144 17.4035 45.5044 17.0175C45.5945 16.625 45.6395 16.194 45.6395 15.7243C45.6395 15.2997 45.5977 14.8975 45.5141 14.518C45.4369 14.132 45.3115 13.7942 45.1377 13.5046C44.964 13.2087 44.7389 12.9771 44.4621 12.8098C44.1919 12.6361 43.8606 12.5492 43.4681 12.5492C43.0757 12.5492 42.7411 12.6328 42.4644 12.8002C42.1878 12.9674 41.9627 13.1958 41.7889 13.4853C41.6152 13.7749 41.4897 14.1126 41.4125 14.4987C41.3353 14.8847 41.2967 15.2932 41.2967 15.7243Z" fill="#8B888A"/>
<path d="M56.7846 18.7255C56.6109 19.0471 56.3986 19.3206 56.1476 19.5458C55.9032 19.7709 55.6297 19.9576 55.3274 20.1055C55.0314 20.247 54.713 20.3532 54.3719 20.424C54.0373 20.4883 53.6932 20.5205 53.3393 20.5205C52.7474 20.5205 52.207 20.4144 51.718 20.202C51.229 19.9897 50.8076 19.6841 50.4538 19.2852C50.1063 18.8799 49.8361 18.3845 49.6431 17.799C49.45 17.2135 49.3535 16.5444 49.3535 15.7917C49.3535 15.0839 49.4436 14.4212 49.6238 13.8036C49.8039 13.1859 50.0645 12.6487 50.4055 12.1919C50.7529 11.7351 51.1776 11.3748 51.6794 11.111C52.1812 10.8473 52.7539 10.7153 53.3972 10.7153C54.1306 10.7153 54.7805 10.8569 55.3467 11.1399C55.9193 11.4231 56.4115 11.8863 56.8233 12.5296V12.2788C56.8233 11.8156 56.9487 11.4681 57.1996 11.2365C57.457 10.9985 57.8108 10.8794 58.2612 10.8794C58.5314 10.8794 58.7598 10.9244 58.9464 11.0145C59.1329 11.0982 59.2809 11.2268 59.3903 11.4006C59.4997 11.5678 59.5769 11.7769 59.6219 12.0279C59.6734 12.2723 59.6991 12.5522 59.6991 12.8675V19.3335C59.6991 20.1184 59.5995 20.8196 59.4 21.4373C59.207 22.0549 58.9046 22.5761 58.4928 23.0007C58.081 23.4254 57.5535 23.747 56.9101 23.9658C56.2667 24.191 55.5011 24.3036 54.6132 24.3036C53.9892 24.3036 53.4358 24.2747 52.9532 24.2167C52.4772 24.1653 52.0654 24.0848 51.718 23.9755C51.3706 23.8532 51.1068 23.7181 50.9266 23.5701C50.7529 23.4221 50.6661 23.2291 50.6661 22.9911C50.6661 22.856 50.6853 22.7273 50.724 22.605C50.7626 22.4828 50.8205 22.3735 50.8976 22.2769C50.9813 22.1869 51.0875 22.1129 51.2162 22.0549C51.3512 22.0035 51.5153 21.9778 51.7083 21.9778C51.9142 21.9778 52.1201 21.9906 52.326 22.0164C52.5383 22.0421 52.7571 22.0679 52.9822 22.0935C53.2138 22.1257 53.4551 22.1546 53.706 22.1804C53.9634 22.2061 54.24 22.219 54.536 22.219C54.8899 22.219 55.2051 22.1836 55.4818 22.1129C55.7584 22.0421 55.9932 21.9167 56.1863 21.7365C56.3793 21.5564 56.5273 21.3151 56.6302 21.0127C56.7332 20.7167 56.7846 20.3371 56.7846 19.8739V18.7255ZM56.7846 15.7241C56.7846 15.2544 56.7492 14.8266 56.6785 14.4406C56.6142 14.0545 56.5015 13.7264 56.3407 13.4561C56.1798 13.1795 55.9643 12.9672 55.6941 12.8192C55.4238 12.6648 55.0861 12.5876 54.6808 12.5876C54.2818 12.5876 53.9505 12.668 53.6868 12.8288C53.4294 12.9897 53.2235 13.2117 53.0691 13.4947C52.9147 13.7779 52.8053 14.1092 52.7409 14.4888C52.683 14.8684 52.6541 15.2737 52.6541 15.7048C52.6541 16.6891 52.8278 17.4291 53.1753 17.9244C53.5226 18.4199 54.0277 18.6676 54.6904 18.6676C54.9992 18.6612 55.2791 18.6032 55.53 18.4938C55.7873 18.378 56.0094 18.2011 56.1959 17.963C56.3825 17.725 56.5273 17.4226 56.6302 17.0558C56.7332 16.6891 56.7846 16.2452 56.7846 15.7241Z" fill="#8B888A"/>
<path d="M60.5859 15.7243C60.5859 15.0423 60.6953 14.399 60.914 13.7942C61.1393 13.1829 61.4738 12.649 61.9177 12.1921C62.3681 11.7353 62.9278 11.3718 63.5969 11.1016C64.2725 10.8313 65.0639 10.6963 65.9711 10.6963C66.8396 10.6963 67.6084 10.8217 68.2775 11.0726C68.9467 11.3236 69.5096 11.6742 69.9664 12.1246C70.4232 12.5685 70.7707 13.0993 71.0087 13.7169C71.2468 14.3281 71.3658 14.9973 71.3658 15.7243C71.3658 16.3999 71.2532 17.04 71.028 17.6448C70.8028 18.2431 70.4651 18.7707 70.0147 19.2276C69.5643 19.6779 69.0013 20.0382 68.3258 20.3084C67.6503 20.5722 66.8653 20.7041 65.9711 20.7041C65.0896 20.7041 64.3111 20.5786 63.6355 20.3277C62.9664 20.0704 62.4035 19.7197 61.9467 19.2757C61.4963 18.8254 61.1553 18.2979 60.9237 17.6931C60.6985 17.0819 60.5859 16.4256 60.5859 15.7243ZM63.7996 15.7243C63.7996 16.149 63.8382 16.5543 63.9155 16.9403C63.9926 17.3199 64.1148 17.6545 64.2822 17.944C64.4559 18.2335 64.681 18.4651 64.9577 18.6388C65.2343 18.8061 65.5722 18.8897 65.9711 18.8897C66.3378 18.8897 66.6562 18.8126 66.9264 18.6581C67.2031 18.5038 67.4283 18.2882 67.602 18.0115C67.7822 17.7349 67.9172 17.4035 68.0073 17.0175C68.0974 16.625 68.1425 16.194 68.1425 15.7243C68.1425 15.2997 68.1006 14.8975 68.017 14.518C67.9398 14.132 67.8143 13.7942 67.6406 13.5046C67.4669 13.2087 67.2417 12.9771 66.9651 12.8098C66.6949 12.6361 66.3635 12.5492 65.9711 12.5492C65.5786 12.5492 65.244 12.6328 64.9674 12.8002C64.6907 12.9674 64.4655 13.1958 64.2918 13.4853C64.1181 13.7749 63.9926 14.1126 63.9155 14.4987C63.8382 14.8847 63.7996 15.2932 63.7996 15.7243Z" fill="#8B888A"/>
<path d="M75.5039 7.44408C75.5039 7.6564 75.4557 7.84619 75.3592 8.01347C75.2627 8.17432 75.1372 8.30939 74.9828 8.41884C74.8284 8.5282 74.6482 8.61179 74.4423 8.66968C74.243 8.72116 74.0371 8.74693 73.8247 8.74693C73.5995 8.74693 73.384 8.71794 73.1781 8.66005C72.9787 8.60216 72.8018 8.51857 72.6474 8.40912C72.493 8.29333 72.3707 8.15501 72.2806 7.99417C72.1906 7.83333 72.1455 7.64996 72.1455 7.44408C72.1455 7.2575 72.1873 7.087 72.2709 6.93259C72.361 6.77175 72.48 6.63342 72.628 6.5176C72.776 6.4018 72.953 6.31172 73.1589 6.24739C73.3647 6.18305 73.5899 6.15088 73.8344 6.15088C74.0467 6.15088 74.2526 6.17983 74.4521 6.23774C74.6579 6.29564 74.838 6.37928 74.9924 6.48866C75.1469 6.59803 75.2692 6.73314 75.3592 6.89398C75.4557 7.05483 75.5039 7.23819 75.5039 7.44408ZM75.3592 18.6872C75.3592 19.2984 75.2337 19.7681 74.9828 20.0962C74.7383 20.4243 74.3298 20.5884 73.7572 20.5884C73.2168 20.5884 72.8339 20.4243 72.6087 20.0962C72.39 19.7681 72.2806 19.2984 72.2806 18.6872V12.7809C72.2806 12.1697 72.39 11.7 72.6087 11.3719C72.8339 11.0438 73.2168 10.8797 73.7572 10.8797C74.3298 10.8797 74.7383 11.0438 74.9828 11.3719C75.2337 11.7 75.3592 12.1697 75.3592 12.7809V18.6872Z" fill="#8B888A"/>
<path d="M79.7972 15.7048C79.7972 16.1359 79.8293 16.5379 79.8937 16.9112C79.9645 17.2843 80.0803 17.6124 80.2411 17.8955C80.4084 18.1721 80.6272 18.3909 80.8974 18.5517C81.174 18.7126 81.515 18.793 81.9204 18.793C82.2935 18.793 82.6055 18.7158 82.8567 18.5614C83.1137 18.4006 83.3195 18.1818 83.4744 17.9052C83.6284 17.622 83.7379 17.2907 83.8021 16.9112C83.873 16.5315 83.9084 16.1197 83.9084 15.6759C83.9084 15.322 83.8828 14.9617 83.831 14.595C83.7799 14.2218 83.6835 13.884 83.5419 13.5816C83.4002 13.2792 83.2042 13.0315 82.9531 12.8385C82.7019 12.6455 82.3741 12.549 81.9686 12.549C81.5633 12.549 81.219 12.6133 80.936 12.742C80.6593 12.8707 80.4341 13.0669 80.2605 13.3307C80.0931 13.5945 79.9741 13.9259 79.9034 14.3247C79.8326 14.7172 79.7972 15.1772 79.7972 15.7048ZM79.7876 12.7806C79.9484 12.4396 80.1543 12.1404 80.4052 11.8831C80.6561 11.6257 80.9328 11.4102 81.2352 11.2365C81.5376 11.0628 81.8528 10.9341 82.1809 10.8505C82.5158 10.7604 82.8468 10.7153 83.1746 10.7153C83.7667 10.7153 84.3012 10.8473 84.7772 11.111C85.2532 11.3748 85.6584 11.7351 85.9927 12.1919C86.3337 12.6423 86.5947 13.1763 86.7751 13.7939C86.9546 14.4052 87.0452 15.0614 87.0452 15.7627C87.0452 16.4897 86.948 17.1556 86.7553 17.7604C86.5692 18.3652 86.3015 18.8863 85.954 19.3238C85.6131 19.7549 85.2013 20.0926 84.7187 20.3371C84.2427 20.5816 83.7124 20.7038 83.1268 20.7038C82.4062 20.7038 81.7627 20.5366 81.1966 20.202C80.6304 19.8675 80.1607 19.3978 79.7876 18.793V22.2673C79.7876 22.8785 79.6621 23.3482 79.4112 23.6763C79.1666 24.0044 78.7582 24.1685 78.1855 24.1685C77.6451 24.1685 77.2622 24.0044 77.0371 23.6763C76.8184 23.3482 76.709 22.8785 76.709 22.2673V12.7806C76.709 12.1694 76.8184 11.6997 77.0371 11.3716C77.2622 11.0435 77.6451 10.8794 78.1855 10.8794C78.7582 10.8794 79.1666 11.0435 79.4112 11.3716C79.6621 11.6997 79.7876 12.1694 79.7876 12.7806Z" fill="#8B888A"/>
<path d="M90.4405 13.4661C90.4405 13.7169 90.55 13.9132 90.7683 14.0547C90.9873 14.1899 91.2896 14.3024 91.6758 14.3925C92.0423 14.4761 92.4186 14.5566 92.8049 14.6337C93.1911 14.711 93.5675 14.8011 93.9339 14.904C94.3004 15.0005 94.6446 15.1163 94.9666 15.2514C95.2878 15.3865 95.5711 15.557 95.8157 15.7629C96.0603 15.9623 96.253 16.2069 96.3946 16.4963C96.5363 16.7795 96.6071 17.1205 96.6071 17.5193C96.6071 18.0212 96.5042 18.4683 96.2983 18.8608C96.0924 19.2468 95.8 19.5749 95.4204 19.8452C95.0473 20.1154 94.6002 20.3245 94.0789 20.4725C93.5576 20.6205 92.9819 20.6976 92.3511 20.7041C91.7532 20.7041 91.1767 20.6655 90.6233 20.5883C90.0707 20.5175 89.5783 20.4049 89.1468 20.2505C88.7226 20.0961 88.3817 19.9063 88.1239 19.6811C87.867 19.4495 87.7385 19.1793 87.7385 18.8705C87.7385 18.6002 87.825 18.3911 87.9988 18.2431C88.1725 18.0952 88.394 18.0212 88.665 18.0212C88.7679 18.0212 88.8898 18.0404 89.0315 18.0791C89.1731 18.1177 89.3271 18.1659 89.4943 18.2238C89.6615 18.2817 89.8385 18.3461 90.0255 18.4169C90.2182 18.4812 90.4175 18.5391 90.6233 18.5906C90.8811 18.6614 91.1446 18.7193 91.4147 18.7643C91.6915 18.8029 91.9748 18.8222 92.2646 18.8222C92.4442 18.8222 92.6212 18.8061 92.795 18.774C92.9688 18.7353 93.1236 18.6807 93.2586 18.6099C93.4003 18.5327 93.5156 18.4361 93.6062 18.3204C93.6959 18.2046 93.7503 18.063 93.77 17.8957C93.789 17.8571 93.8055 17.8185 93.8178 17.7799C93.831 17.7413 93.8376 17.6963 93.8376 17.6448C93.8376 17.4646 93.7536 17.3038 93.5864 17.1622C93.4258 17.0207 93.1969 16.9081 92.9012 16.8245C92.4055 16.7087 91.9327 16.6026 91.4823 16.506C91.0326 16.4095 90.6143 16.3066 90.228 16.1972C89.8484 16.0879 89.5009 15.9623 89.1855 15.8208C88.8766 15.6793 88.6131 15.5055 88.394 15.2997C88.1824 15.0938 88.0144 14.8461 87.8925 14.5566C87.7764 14.267 87.7188 13.9164 87.7188 13.5046C87.7188 13.0607 87.8184 12.665 88.0177 12.3176C88.2236 11.9637 88.5168 11.6678 88.8964 11.4297C89.276 11.1916 89.7356 11.0115 90.2766 10.8893C90.8169 10.7606 91.4279 10.6963 92.1098 10.6963C93.3319 10.6963 94.2617 10.8443 94.8991 11.1402C95.5423 11.4297 95.8643 11.8093 95.8643 12.279C95.8643 12.5428 95.777 12.7455 95.6032 12.887C95.4295 13.0221 95.2203 13.0896 94.9765 13.0896C94.8472 13.0896 94.7122 13.0671 94.5705 13.0221C94.4355 12.9706 94.2716 12.9159 94.0789 12.8581C93.8853 12.7937 93.6539 12.7391 93.3838 12.694C93.1203 12.6425 92.7917 12.6168 92.3997 12.6168C92.1032 12.6168 91.8331 12.6296 91.5885 12.6554C91.3505 12.6811 91.1446 12.7261 90.9709 12.7904C90.8037 12.8548 90.6719 12.9416 90.5756 13.0511C90.485 13.1605 90.4405 13.2987 90.4405 13.4661Z" fill="#8B888A"/>
<path d="M100.524 17.0076C100.524 17.31 100.562 17.5738 100.64 17.799C100.723 18.0242 100.836 18.214 100.977 18.3684C101.119 18.5164 101.283 18.629 101.469 18.7061C101.663 18.777 101.868 18.8124 102.087 18.8124C102.344 18.8124 102.592 18.7737 102.83 18.6965C103.068 18.6193 103.278 18.5003 103.458 18.3394C103.644 18.1786 103.792 17.9759 103.902 17.7314C104.01 17.487 104.066 17.2006 104.066 16.8725V12.7806C104.066 12.1694 104.175 11.6997 104.393 11.3716C104.619 11.0435 105.002 10.8794 105.542 10.8794C106.115 10.8794 106.523 11.0435 106.768 11.3716C107.019 11.6997 107.144 12.1694 107.144 12.7806V18.6869C107.144 19.2981 107.019 19.7677 106.768 20.0958C106.523 20.424 106.115 20.5881 105.542 20.5881C105.002 20.5881 104.619 20.424 104.393 20.0958C104.175 19.7677 104.066 19.2981 104.066 18.6869C103.931 18.9828 103.754 19.253 103.534 19.4975C103.322 19.7421 103.072 19.9544 102.782 20.1345C102.498 20.3082 102.184 20.4433 101.836 20.5398C101.495 20.6363 101.125 20.6846 100.726 20.6846C100.296 20.6846 99.8805 20.6105 99.4811 20.4626C99.0891 20.3082 98.7415 20.083 98.4393 19.787C98.1371 19.4847 97.8958 19.1115 97.7154 18.6676C97.5351 18.2236 97.4453 17.7057 97.4453 17.1138V12.7806C97.4453 12.1694 97.5548 11.6997 97.7731 11.3716C97.9987 11.0435 98.3808 10.8794 98.9219 10.8794C99.4943 10.8794 99.9027 11.0435 100.147 11.3716C100.398 11.6997 100.524 12.1694 100.524 12.7806V17.0076Z" fill="#8B888A"/>
<path d="M108.542 12.7806C108.542 12.1694 108.652 11.6997 108.871 11.3716C109.095 11.0435 109.478 10.8794 110.019 10.8794C110.592 10.8794 111 11.0435 111.245 11.3716C111.495 11.6997 111.621 12.1694 111.621 12.7806C111.75 12.4718 111.923 12.1919 112.142 11.941C112.367 11.6836 112.622 11.4649 112.904 11.2847C113.194 11.1046 113.506 10.9663 113.841 10.8697C114.175 10.7668 114.522 10.7153 114.883 10.7153C115.218 10.7153 115.545 10.7604 115.867 10.8505C116.195 10.9341 116.498 11.0724 116.775 11.2654C117.057 11.452 117.305 11.6901 117.518 11.9796C117.73 12.2691 117.894 12.6165 118.01 13.0219C118.209 12.5908 118.444 12.2273 118.714 11.9314C118.984 11.6354 119.278 11.3973 119.592 11.2172C119.908 11.037 120.236 10.9084 120.577 10.8311C120.925 10.754 121.271 10.7153 121.619 10.7153C122.031 10.7153 122.423 10.7894 122.796 10.9373C123.176 11.0853 123.507 11.3105 123.79 11.6129C124.08 11.9088 124.308 12.2852 124.476 12.742C124.649 13.1923 124.736 13.72 124.736 14.3247V18.6869C124.736 19.2981 124.611 19.7677 124.36 20.0958C124.116 20.424 123.706 20.5881 123.134 20.5881C122.594 20.5881 122.211 20.424 121.986 20.0958C121.767 19.7677 121.658 19.2981 121.658 18.6869V14.4598C121.658 14.1703 121.619 13.9129 121.542 13.6878C121.465 13.4561 121.355 13.2632 121.214 13.1088C121.079 12.9479 120.918 12.8288 120.731 12.7517C120.545 12.668 120.345 12.6262 120.133 12.6262C119.869 12.6262 119.618 12.668 119.38 12.7517C119.142 12.8353 118.933 12.964 118.753 13.1377C118.579 13.3114 118.438 13.5334 118.328 13.8036C118.225 14.0738 118.174 14.3987 118.174 14.7783V18.6869C118.174 19.2981 118.048 19.7677 117.798 20.0958C117.553 20.424 117.145 20.5881 116.571 20.5881C116.031 20.5881 115.648 20.424 115.423 20.0958C115.204 19.7677 115.095 19.2981 115.095 18.6869V14.6432C115.095 13.9805 114.956 13.4787 114.681 13.1377C114.41 12.7967 114.04 12.6262 113.57 12.6262C113.294 12.6262 113.036 12.6712 112.798 12.7613C112.56 12.8514 112.354 12.9832 112.18 13.157C112.007 13.3307 111.868 13.5462 111.765 13.8036C111.669 14.0609 111.621 14.3569 111.621 14.6914V18.6869C111.621 19.2981 111.495 19.7677 111.245 20.0958C111 20.424 110.592 20.5881 110.019 20.5881C109.478 20.5881 109.095 20.424 108.871 20.0958C108.652 19.7677 108.542 19.2981 108.542 18.6869V12.7806Z" fill="#8B888A"/>
<path d="M13.9998 18.9409C11.2708 18.9409 9.05859 16.7287 9.05859 13.9998C9.05859 11.2708 11.2708 9.05859 13.9998 9.05859C16.7287 9.05859 18.9409 11.2708 18.9409 13.9998C18.9409 16.7287 16.7287 18.9409 13.9998 18.9409Z" fill="#8B888A"/>
<path d="M4.42785 15.6879C2.99594 15.9404 2.01444 17.3236 2.5641 18.6697C3.3315 20.549 4.55578 22.2234 6.14298 23.5318C8.41255 25.4026 11.2751 26.4023 14.216 26.351C17.1568 26.2997 19.9828 25.2007 22.1858 23.2517C23.7262 21.8888 24.8914 20.1726 25.5928 18.2677C26.0951 16.9032 25.0659 15.5551 23.626 15.3528C22.1862 15.1504 20.8935 16.1985 20.1823 17.4667C19.7968 18.1541 19.2963 18.7777 18.6968 19.3082C17.4328 20.4265 15.8114 21.0569 14.1241 21.0864C12.4368 21.1158 10.7944 20.5423 9.4922 19.4689C8.87447 18.9597 8.3526 18.3539 7.94332 17.6803C7.18832 16.4377 5.85976 15.4354 4.42785 15.6879Z" fill="#8B888A"/>
<path d="M26.2578 15.5436C26.3209 15.0379 26.3533 14.5227 26.3533 13.9999C26.3533 7.17757 20.8228 1.64697 14.0004 1.64697C7.17806 1.64697 1.64746 7.17757 1.64746 13.9999C1.64746 14.6708 1.70095 15.3293 1.8039 15.9712C2.37129 15.1944 3.25685 14.64 4.21338 14.4713C5.2483 14.2888 6.18888 14.5398 6.98415 15.009C6.93717 14.6794 6.91286 14.3425 6.91286 13.9999C6.91286 10.0856 10.0861 6.91237 14.0004 6.91237C17.9147 6.91237 21.0879 10.0856 21.0879 13.9999C21.0879 14.258 21.0741 14.5129 21.0473 14.7638C21.8257 14.267 22.7572 13.9831 23.798 14.1295C24.7596 14.2646 25.6636 14.7875 26.2578 15.5436Z" fill="#8B888A"/>
</svg>
