<svg width="42" height="42" viewBox="0 0 42 42" fill="none" xmlns="http://www.w3.org/2000/svg">
<path d="M31.5058 36.8341C35.2142 34.3773 37.9431 30.6973 39.2168 26.4352C40.4906 22.1731 40.2285 17.5991 38.4762 13.5104C36.724 9.42172 33.5927 6.07743 29.628 4.06031C25.6632 2.0432 21.1164 1.48114 16.7798 2.47209M31.5078 31.0001V36.8321L37.9998 36.8341M10.4438 5.20009C6.74614 7.66531 4.0296 11.3487 2.76671 15.6096C1.50382 19.8705 1.7745 24.4393 3.53166 28.5213C5.28883 32.6033 8.4213 35.9402 12.3842 37.9515C16.3471 39.9629 20.8897 40.5215 25.2218 39.5301M10.4438 5.20009V11.0001M10.4438 5.20009H3.99983" stroke="#C4A54A" stroke-width="3" stroke-linecap="round" stroke-linejoin="round"/>
<path d="M22 11L15 21H27L20 31" stroke="#C4A54A" stroke-width="3" stroke-linecap="round" stroke-linejoin="round"/>
</svg>
