<svg width="48" height="48" viewBox="0 0 48 48" fill="none" xmlns="http://www.w3.org/2000/svg">
<path d="M31.158 29.508C30.3793 28.2751 29.9769 26.842 30 25.384C30.0232 23.926 30.4708 22.5063 31.2882 21.2988C32.1056 20.0912 33.2573 19.1481 34.6024 18.5849C35.9474 18.0217 37.4275 17.8628 38.8614 18.1277C40.2953 18.3926 41.621 19.0697 42.6761 20.0762C43.7312 21.0828 44.4699 22.3751 44.802 23.7949C45.1341 25.2148 45.0451 26.7007 44.5458 28.0708C44.0466 29.4408 43.1587 30.6357 41.991 31.509C45.636 33.519 48 37.38 48 42V46.5C48 46.8978 47.842 47.2794 47.5607 47.5607C47.2794 47.842 46.8978 48 46.5 48C46.1022 48 45.7206 47.842 45.4393 47.5607C45.158 47.2794 45 46.8978 45 46.5V42C45 36.828 41.172 33 36 33C33.27 33 32.106 32.94 30.585 32.634C26.835 31.872 23.586 29.634 19.83 24.936C19.6959 24.7837 19.5941 24.6057 19.5307 24.4129C19.4674 24.2201 19.4438 24.0165 19.4615 23.8143C19.4791 23.6122 19.5376 23.4157 19.6334 23.2368C19.7292 23.0578 19.8603 22.9002 20.0188 22.7735C20.1772 22.6467 20.3598 22.5534 20.5554 22.4992C20.7509 22.445 20.9555 22.4311 21.1566 22.4583C21.3577 22.4854 21.5512 22.5531 21.7254 22.6572C21.8996 22.7613 22.0508 22.8997 22.17 23.064C24.87 26.436 27.129 28.284 29.472 29.193C29.937 29.349 30.507 29.442 31.158 29.508ZM36.513 29.892C36.763 29.922 37.014 29.956 37.266 29.994L37.5 30C38.6503 29.9974 39.756 29.5545 40.5898 28.7621C41.4237 27.9697 41.9225 26.8881 41.9836 25.7394C42.0448 24.5907 41.6638 23.4622 40.9189 22.5857C40.1739 21.7092 39.1216 21.1513 37.978 21.0266C36.8345 20.9018 35.6866 21.2197 34.7702 21.915C33.8538 22.6102 33.2384 23.63 33.0505 24.7649C32.8626 25.8997 33.1164 27.0635 33.7598 28.017C34.4032 28.9705 35.3903 29.6415 36.513 29.892ZM29.34 35.91C29.7378 35.91 30.1194 36.068 30.4007 36.3493C30.682 36.6306 30.84 37.0122 30.84 37.41C30.8176 37.6461 30.7672 37.8787 30.69 38.103C30.153 39.243 30 40.425 30 42.009V46.509C30 46.9068 29.842 47.2884 29.5607 47.5697C29.2794 47.851 28.8978 48.009 28.5 48.009C28.1022 48.009 27.7206 47.851 27.4393 47.5697C27.158 47.2884 27 46.9068 27 46.509V42.009C27 40.038 27.216 38.451 27.921 36.921C28.0228 36.6257 28.2143 36.3696 28.4687 36.1884C28.723 36.0071 29.0277 35.9098 29.34 35.91ZM17.874 17.316C18.1081 17.6276 18.2117 18.018 18.1629 18.4047C18.1141 18.7913 17.9168 19.1438 17.6127 19.3875C17.3085 19.6312 16.9215 19.747 16.5335 19.7103C16.1455 19.6736 15.7871 19.4874 15.534 19.191L9.33 11.436C9.19589 11.2837 9.09409 11.1057 9.03075 10.9129C8.9674 10.7201 8.94384 10.5165 8.96149 10.3143C8.97914 10.1122 9.03763 9.91567 9.13341 9.73676C9.2292 9.55785 9.3603 9.40023 9.51877 9.27346C9.67724 9.14668 9.85978 9.05338 10.0554 8.9992C10.2509 8.94503 10.4555 8.9311 10.6566 8.95826C10.8577 8.98542 11.0512 9.05311 11.2254 9.15723C11.3996 9.26135 11.5508 9.39973 11.67 9.564L17.874 17.316ZM3 33H19.5C19.8978 33 20.2794 33.158 20.5607 33.4393C20.842 33.7206 21 34.1022 21 34.5C21 34.8978 20.842 35.2794 20.5607 35.5607C20.2794 35.842 19.8978 36 19.5 36H1.5C1.10218 36 0.720644 35.842 0.43934 35.5607C0.158035 35.2794 0 34.8978 0 34.5V1.5C0 1.10218 0.158035 0.720644 0.43934 0.43934C0.720644 0.158035 1.10218 0 1.5 0L37.5 0C37.8978 0 38.2794 0.158035 38.5607 0.43934C38.842 0.720644 39 1.10218 39 1.5V10.5C39 10.8978 38.842 11.2794 38.5607 11.5607C38.2794 11.842 37.8978 12 37.5 12C37.1022 12 36.7206 11.842 36.4393 11.5607C36.158 11.2794 36 10.8978 36 10.5V3H3V33Z" fill="#C4A54A"/>
</svg>
