<svg width="48" height="49" viewBox="0 0 48 49" fill="none" xmlns="http://www.w3.org/2000/svg">
<rect y="0.5" width="48" height="48" rx="24" fill="#C4A54A"/>
<g clip-path="url(#clip0_0_861)">
<path d="M31.3313 14.8873C30.1256 15.1942 28.8855 15.4013 27.6455 15.5029L24.1494 15.7894C23.1302 15.7965 22.1441 16.1647 21.3695 16.8282L21.3514 16.8437L19.0014 19.1496C17.7959 18.8802 16.5302 19.0095 15.3624 19.5446C13.6587 20.3251 12.4729 21.8271 12.1088 23.6653C11.7123 25.6679 12.4161 27.7518 13.9456 29.1038L20.9528 35.298L27.96 29.1038C29.0285 28.1592 29.7276 26.7545 29.8781 25.2817C30.1176 25.1817 30.4372 25.1365 30.8721 25.1398C30.8911 25.14 30.9098 25.1401 30.9288 25.1401C32.7404 25.14 34.4627 24.4436 35.7838 23.1756L36.0001 22.968V13.6992L31.3313 14.8873ZM27.0285 28.05L20.9528 33.4206L14.8772 28.05C13.721 27.0278 13.1889 25.4524 13.4887 23.9385C13.7639 22.5488 14.6604 21.4134 15.9483 20.8233C17.2362 20.2332 18.6816 20.2957 19.9138 20.9948L20.9528 21.5844L21.9919 20.9948C23.6683 20.0437 25.6743 20.2639 27.019 21.4721L24.2546 23.475C23.7757 23.8012 23.4586 24.295 23.361 24.8668C23.2627 25.4431 23.401 26.0186 23.7506 26.4872C24.1596 27.0355 24.8017 27.3344 25.4539 27.3344C25.7912 27.3344 26.1313 27.2545 26.4432 27.0877L28.2699 26.1245C28.0246 26.8724 27.5954 27.5488 27.0285 28.05ZM34.5935 22.3582C33.5563 23.2579 32.2515 23.7438 30.8834 23.7333C30.4167 23.7295 29.725 23.7623 29.1151 24.0886L25.7854 25.8444L25.7808 25.8468C25.4742 26.0113 25.0861 25.9251 24.878 25.6461C24.7609 25.4892 24.7146 25.2965 24.7475 25.1034C24.7805 24.9104 24.8881 24.7439 25.0506 24.6347L25.0609 24.6278L30.5878 20.6234L29.7625 19.4844L28.178 20.6324C26.3931 18.8424 23.6049 18.4625 21.2977 19.7715L20.9528 19.9672L20.608 19.7715C20.5586 19.7435 20.509 19.7164 20.4591 19.6899L22.3016 17.8819C22.8265 17.4394 23.4924 17.1959 24.1795 17.1959H24.2082L27.7605 16.9048C29.0785 16.7968 30.3967 16.5766 31.6782 16.2505L34.5936 15.5086V22.3582H34.5935Z" fill="white"/>
</g>
<defs>
<clipPath id="clip0_0_861">
<rect width="24" height="24" fill="white" transform="translate(12 12.5)"/>
</clipPath>
</defs>
</svg>
