<svg width="48" height="49" viewBox="0 0 48 49" fill="none" xmlns="http://www.w3.org/2000/svg">
<rect y="0.5" width="48" height="48" rx="24" fill="#C4A54A"/>
<path d="M28.4103 13.9961C26.8269 13.9961 25.2814 14.4946 24 15.4097C22.7185 14.4946 21.1731 13.9961 19.5896 13.9961C15.4047 13.9961 12 17.4008 12 21.5858C12 23.2271 12.5673 24.8567 13.6405 26.2984C15.3878 28.6457 23.6662 34.7565 24 35.0024C24.3338 34.7565 32.6122 28.6457 34.3595 26.2984C35.4327 24.8567 36 23.227 36 21.5858C36 17.4008 32.5953 13.9961 28.4103 13.9961ZM19.7548 29.9136V29.9742C18.4632 28.94 17.1442 27.8412 16.1482 26.9123C16.398 25.6005 17.5529 24.6055 18.9363 24.6055C20.123 24.6055 21.171 25.3467 21.5861 26.4235C20.4804 27.1906 19.7548 28.4688 19.7548 29.9136ZM16.8356 21.0985C16.8356 19.9401 17.778 18.9977 18.9364 18.9977C20.0947 18.9977 21.0371 19.9401 21.0371 21.0985C21.0371 22.2568 20.0947 23.1992 18.9364 23.1992C17.778 23.1992 16.8356 22.2568 16.8356 21.0985ZM26.8389 31.085C25.6205 32.0356 24.5583 32.8357 24 33.2529C23.4417 32.8358 22.3795 32.0356 21.1611 31.0851V29.9136C21.1611 28.3482 22.4346 27.0747 24 27.0747C25.5654 27.0747 26.8389 28.3482 26.8389 29.9136V31.085ZM21.8993 23.5676C21.8993 22.4093 22.8416 21.4669 24 21.4669C25.1584 21.4669 26.1007 22.4093 26.1007 23.5676C26.1007 24.726 25.1583 25.6683 24 25.6683C22.8417 25.6683 21.8993 24.726 21.8993 23.5676ZM28.2451 29.9741V29.9136C28.2451 28.4688 27.5196 27.1907 26.4138 26.4235C26.8289 25.3467 27.877 24.6055 29.0636 24.6055C30.4471 24.6055 31.6019 25.6004 31.8518 26.9122C30.8558 27.8411 29.5368 28.9399 28.2451 29.9741ZM26.9629 21.0985C26.9629 19.9401 27.9052 18.9977 29.0636 18.9977C30.222 18.9977 31.1643 19.9401 31.1643 21.0985C31.1643 22.2568 30.222 23.1992 29.0636 23.1992C27.9053 23.1992 26.9629 22.2568 26.9629 21.0985ZM33.2315 25.4587C33.1571 25.5586 33.0688 25.6667 32.9692 25.7811C32.6202 24.9648 32.0227 24.2792 31.272 23.8202C32.0637 23.1767 32.5706 22.1958 32.5706 21.0985C32.5706 19.1647 30.9974 17.5915 29.0636 17.5915C27.349 17.5915 25.9188 18.8287 25.6165 20.457C25.1324 20.2044 24.5828 20.0607 24 20.0607C23.4172 20.0607 22.8676 20.2044 22.3835 20.457C22.0811 18.8287 20.651 17.5915 18.9364 17.5915C17.0026 17.5915 15.4294 19.1647 15.4294 21.0985C15.4294 22.1958 15.9363 23.1766 16.728 23.8202C15.9774 24.2792 15.3798 24.9648 15.0308 25.7811C14.9313 25.6667 14.8429 25.5586 14.7685 25.4587C13.8773 24.2615 13.4062 22.9222 13.4062 21.5858C13.4062 18.1762 16.1801 15.4023 19.5896 15.4023C21.0347 15.4023 22.441 15.912 23.5493 16.8374L24 17.2136L24.4507 16.8374C25.559 15.912 26.9653 15.4023 28.4104 15.4023C31.8199 15.4023 34.5938 18.1762 34.5938 21.5858C34.5938 22.9222 34.1227 24.2615 33.2315 25.4587Z" fill="white"/>
</svg>
