<svg width="48" height="48" viewBox="0 0 48 48" fill="none" xmlns="http://www.w3.org/2000/svg">
<path d="M43.5906 34.4095V28.4827C43.5906 23.4178 39.4848 19.3119 34.4198 19.3119H31.6668C29.7969 19.3119 28.2811 17.796 28.2811 15.9261V13.7593H18.926V15.9261C18.926 17.796 17.4102 19.3119 15.5403 19.3119H9.89844" stroke="#C4A54A" stroke-width="2" stroke-miterlimit="10" stroke-linecap="round" stroke-linejoin="round"/>
<path d="M9.89844 28.0811H16.9253C18.0124 30.6986 20.5925 32.5399 23.6035 32.5399C26.6144 32.5399 29.1945 30.6987 30.2817 28.0811H32.0306C33.5717 28.0811 34.821 29.3304 34.821 30.8715V34.4091" stroke="#C4A54A" stroke-width="2" stroke-miterlimit="10" stroke-linecap="round" stroke-linejoin="round"/>
<path d="M26.4033 7.1377V13.696" stroke="#C4A54A" stroke-width="2" stroke-miterlimit="10" stroke-linecap="round" stroke-linejoin="round"/>
<path d="M20.8027 13.696V7.1377" stroke="#C4A54A" stroke-width="2" stroke-miterlimit="10" stroke-linecap="round" stroke-linejoin="round"/>
<path d="M33.8848 34.4092H44.5257" stroke="#C4A54A" stroke-width="2" stroke-miterlimit="10" stroke-linecap="round" stroke-linejoin="round"/>
<path d="M43.1269 42.7947C43.1269 44.8943 41.4248 46.5964 39.3251 46.5964C37.2256 46.5964 35.5234 44.8944 35.5234 42.7947C35.5234 40.6951 39.3251 36.186 39.3251 36.186C39.3251 36.186 43.1269 40.695 43.1269 42.7947Z" stroke="#C4A54A" stroke-width="2" stroke-miterlimit="10" stroke-linecap="round" stroke-linejoin="round"/>
<path d="M30.2599 1.40332H16.9473V7.1378H30.2599V1.40332Z" stroke="#C4A54A" stroke-width="2" stroke-miterlimit="10" stroke-linecap="round" stroke-linejoin="round"/>
<path d="M9.89828 15.522H3.47461V31.8716H9.89828V15.522Z" stroke="#C4A54A" stroke-width="2" stroke-miterlimit="10" stroke-linecap="round" stroke-linejoin="round"/>
</svg>
