<svg width="24" height="25" viewBox="0 0 24 25" fill="none" xmlns="http://www.w3.org/2000/svg">
<g clip-path="url(#clip0_0_1904)">
<rect y="0.360352" width="24" height="24" rx="12" fill="white"/>
<mask id="path-3-inside-1_0_1904" fill="white">
<path d="M16.6127 6.75547L17.3965 7.05628L12.9329 11.628L12.1541 11.3398L16.6127 6.75547Z"/>
</mask>
<path d="M16.6127 6.75547L17.3965 7.05628L12.9329 11.628L12.1541 11.3398L16.6127 6.75547Z" fill="white"/>
<path d="M16.6127 6.75547L16.9923 5.84435L16.3462 5.59637L15.8698 6.08623L16.6127 6.75547ZM17.3965 7.05628L18.1381 7.72691L19.1627 6.6774L17.776 6.14516L17.3965 7.05628ZM12.9329 11.628L12.565 12.5435L13.2044 12.7801L13.6745 12.2986L12.9329 11.628ZM12.1541 11.3398L11.4112 10.6705L10.3771 11.7338L11.7863 12.2553L12.1541 11.3398ZM16.2331 7.66659L17.0169 7.96741L17.776 6.14516L16.9923 5.84435L16.2331 7.66659ZM16.6549 6.38566L12.1913 10.9574L13.6745 12.2986L18.1381 7.72691L16.6549 6.38566ZM13.3008 10.7125L12.522 10.4242L11.7863 12.2553L12.565 12.5435L13.3008 10.7125ZM12.8971 12.009L17.3557 7.42471L15.8698 6.08623L11.4112 10.6705L12.8971 12.009Z" fill="black" mask="url(#path-3-inside-1_0_1904)"/>
<mask id="path-5-inside-2_0_1904" fill="white">
<path d="M10.6897 12.8744L11.4902 13.1578L6.66881 18.0988L5.87291 17.8283L10.6897 12.8744Z"/>
</mask>
<path d="M10.6897 12.8744L11.4902 13.1578L6.66881 18.0988L5.87291 17.8283L10.6897 12.8744Z" fill="white"/>
<path d="M10.6897 12.8744L11.0437 11.9538L10.4094 11.7292L9.94661 12.2052L10.6897 12.8744ZM11.4902 13.1578L12.232 13.8283L13.2862 12.7479L11.8442 12.2373L11.4902 13.1578ZM6.66881 18.0988L6.32727 19.0237L6.95433 19.2369L7.41061 18.7693L6.66881 18.0988ZM5.87291 17.8283L5.12986 17.1592L4.06471 18.2547L5.53137 18.7532L5.87291 17.8283ZM10.3356 13.7949L11.1362 14.0784L11.8442 12.2373L11.0437 11.9538L10.3356 13.7949ZM10.7484 12.4874L5.92701 17.4284L7.41061 18.7693L12.232 13.8283L10.7484 12.4874ZM7.01035 17.174L6.21445 16.9034L5.53137 18.7532L6.32727 19.0237L7.01035 17.174ZM6.61596 18.4974L11.4327 13.5435L9.94661 12.2052L5.12986 17.1592L6.61596 18.4974Z" fill="black" mask="url(#path-5-inside-2_0_1904)"/>
<path d="M9.29103 7.52401L16.7977 17.2183L14.4934 17.2183L6.98185 7.51303L9.29103 7.52401Z" stroke="black"/>
</g>
<defs>
<clipPath id="clip0_0_1904">
<rect y="0.360352" width="24" height="24" rx="4" fill="white"/>
</clipPath>
</defs>
</svg>
